<?xml version="1.0" encoding="UTF-8" standalone="no"?>
<!-- Uploaded to: SVG Repo, www.svgrepo.com, Generator: SVG Repo Mixer Tools -->

<svg
   width="800px"
   height="800px"
   viewBox="0 0 24 24"
   fill="none"
   version="1.1"
   id="svg1"
   sodipodi:docname="check-done.svg"
   inkscape:version="1.3.2 (091e20e, 2023-11-25, custom)"
   xmlns:inkscape="http://www.inkscape.org/namespaces/inkscape"
   xmlns:sodipodi="http://sodipodi.sourceforge.net/DTD/sodipodi-0.dtd"
   xmlns="http://www.w3.org/2000/svg"
   xmlns:svg="http://www.w3.org/2000/svg">
  <defs
     id="defs1" />
  <sodipodi:namedview
     id="namedview1"
     pagecolor="#ffffff"
     bordercolor="#000000"
     borderopacity="0.25"
     inkscape:showpageshadow="2"
     inkscape:pageopacity="0.0"
     inkscape:pagecheckerboard="0"
     inkscape:deskcolor="#d1d1d1"
     inkscape:zoom="1.02625"
     inkscape:cx="400.48721"
     inkscape:cy="400"
     inkscape:window-width="1920"
     inkscape:window-height="1017"
     inkscape:window-x="1912"
     inkscape:window-y="-8"
     inkscape:window-maximized="1"
     inkscape:current-layer="svg1" />
  <path
     d="M6 15L8 17L12.5 12.5M8 8V5.2C8 4.0799 8 3.51984 8.21799 3.09202C8.40973 2.71569 8.71569 2.40973 9.09202 2.21799C9.51984 2 10.0799 2 11.2 2H18.8C19.9201 2 20.4802 2 20.908 2.21799C21.2843 2.40973 21.5903 2.71569 21.782 3.09202C22 3.51984 22 4.0799 22 5.2V12.8C22 13.9201 22 14.4802 21.782 14.908C21.5903 15.2843 21.2843 15.5903 20.908 15.782C20.4802 16 19.9201 16 18.8 16H16M5.2 22H12.8C13.9201 22 14.4802 22 14.908 21.782C15.2843 21.5903 15.5903 21.2843 15.782 20.908C16 20.4802 16 19.9201 16 18.8V11.2C16 10.0799 16 9.51984 15.782 9.09202C15.5903 8.71569 15.2843 8.40973 14.908 8.21799C14.4802 8 13.9201 8 12.8 8H5.2C4.0799 8 3.51984 8 3.09202 8.21799C2.71569 8.40973 2.40973 8.71569 2.21799 9.09202C2 9.51984 2 10.0799 2 11.2V18.8C2 19.9201 2 20.4802 2.21799 20.908C2.40973 21.2843 2.71569 21.5903 3.09202 21.782C3.51984 22 4.07989 22 5.2 22Z"
     stroke="#000000"
     stroke-width="2"
     stroke-linecap="round"
     stroke-linejoin="round"
     id="path1"
     style="stroke:#ffffff;stroke-opacity:1" />
</svg>
