<?xml version="1.0" encoding="UTF-8" standalone="no"?>
<!-- Uploaded to: SVG Repo, www.svgrepo.com, Generator: SVG Repo Mixer Tools -->

<svg
   width="800px"
   height="800px"
   viewBox="0 0 24 24"
   fill="none"
   version="1.1"
   id="svg2"
   sodipodi:docname="file.svg"
   inkscape:version="1.3.2 (091e20e, 2023-11-25, custom)"
   xmlns:inkscape="http://www.inkscape.org/namespaces/inkscape"
   xmlns:sodipodi="http://sodipodi.sourceforge.net/DTD/sodipodi-0.dtd"
   xmlns="http://www.w3.org/2000/svg"
   xmlns:svg="http://www.w3.org/2000/svg">
  <defs
     id="defs2" />
  <sodipodi:namedview
     id="namedview2"
     pagecolor="#ffffff"
     bordercolor="#000000"
     borderopacity="0.25"
     inkscape:showpageshadow="2"
     inkscape:pageopacity="0.0"
     inkscape:pagecheckerboard="0"
     inkscape:deskcolor="#d1d1d1"
     inkscape:zoom="1.02625"
     inkscape:cx="400.48721"
     inkscape:cy="400"
     inkscape:window-width="1920"
     inkscape:window-height="1017"
     inkscape:window-x="1912"
     inkscape:window-y="-8"
     inkscape:window-maximized="1"
     inkscape:current-layer="svg2" />
  <path
     fill-rule="evenodd"
     clip-rule="evenodd"
     d="M4.25 5C4.25 3.48122 5.48122 2.25 7 2.25H14.9868C15.5506 2.25 16.0798 2.52157 16.4085 2.97955L19.4217 7.17745C19.6352 7.47488 19.75 7.83178 19.75 8.1979V19C19.75 20.5188 18.5188 21.75 17 21.75H7C5.48122 21.75 4.25 20.5188 4.25 19V5ZM7 3.75C6.30964 3.75 5.75 4.30964 5.75 5V19C5.75 19.6904 6.30964 20.25 7 20.25H17C17.6904 20.25 18.25 19.6904 18.25 19V8.89705H15C14.5858 8.89705 14.25 8.56126 14.25 8.14705V3.75H7Z"
     fill="#000000"
     id="path1"
     style="fill:#ffffff;fill-opacity:1" />
  <path
     d="M15.0857 13.2185C14.8269 13.542 14.355 13.5944 14.0315 13.3357L12.7501 12.3105V15.75C12.7501 16.1642 12.4143 16.5 12.0001 16.5C11.5858 16.5 11.2501 16.1642 11.2501 15.75V12.3104L9.96855 13.3357C9.6451 13.5944 9.17313 13.542 8.91438 13.2185C8.65562 12.8951 8.70806 12.4231 9.03151 12.1643L11.5288 10.1665C11.6561 10.0636 11.8177 10.0015 11.9937 10C11.9958 10 11.9979 10 12.0001 10L12.0025 10C12.1816 10.0006 12.3459 10.0639 12.4746 10.1692L14.9685 12.1643C15.292 12.4231 15.3444 12.8951 15.0857 13.2185Z"
     fill="#000000"
     id="path2"
     style="fill:#ffffff;fill-opacity:1" />
</svg>
