<?xml version="1.0" encoding="UTF-8" standalone="no"?>
<!-- Uploaded to: SVG Repo, www.svgrepo.com, Generator: SVG Repo Mixer Tools -->

<svg
   fill="#000000"
   width="800px"
   height="800px"
   viewBox="0 0 64 64"
   data-name="Layer 1"
   id="Layer_1"
   version="1.1"
   sodipodi:docname="grid-layout-branco.svg"
   inkscape:version="1.3.2 (091e20e, 2023-11-25, custom)"
   xmlns:inkscape="http://www.inkscape.org/namespaces/inkscape"
   xmlns:sodipodi="http://sodipodi.sourceforge.net/DTD/sodipodi-0.dtd"
   xmlns="http://www.w3.org/2000/svg"
   xmlns:svg="http://www.w3.org/2000/svg">
  <defs
     id="defs5" />
  <sodipodi:namedview
     id="namedview5"
     pagecolor="#ffffff"
     bordercolor="#000000"
     borderopacity="0.25"
     inkscape:showpageshadow="2"
     inkscape:pageopacity="0.0"
     inkscape:pagecheckerboard="0"
     inkscape:deskcolor="#d1d1d1"
     inkscape:zoom="1.02625"
     inkscape:cx="400.48721"
     inkscape:cy="400"
     inkscape:window-width="1920"
     inkscape:window-height="1017"
     inkscape:window-x="1912"
     inkscape:window-y="-8"
     inkscape:window-maximized="1"
     inkscape:current-layer="Layer_1" />
  <title
     id="title1" />
  <g
     id="g5"
     style="fill:#ffffff;fill-opacity:1">
    <path
       d="M28.1,29.92h-16a2,2,0,0,1-2-2V12a2,2,0,0,1,2-2h16a2,2,0,0,1,2,2v16A2,2,0,0,1,28.1,29.92Zm-14-4h12V14h-12Z"
       id="path1"
       style="fill:#ffffff;fill-opacity:1" />
    <path
       d="M28.1,54.05h-16a2,2,0,0,1-2-2v-16a2,2,0,0,1,2-2h16a2,2,0,0,1,2,2v16A2,2,0,0,1,28.1,54.05Zm-14-4h12v-12h-12Z"
       id="path2"
       style="fill:#ffffff;fill-opacity:1" />
    <path
       d="M51.88,54.05h-16a2,2,0,0,1-2-2v-16a2,2,0,0,1,2-2h16a2,2,0,0,1,2,2v16A2,2,0,0,1,51.88,54.05Zm-14-4h12v-12h-12Z"
       id="path3"
       style="fill:#ffffff;fill-opacity:1" />
    <path
       d="M44.78,27.26a2,2,0,0,1-2-2V15.5a2,2,0,0,1,4,0v9.76A2,2,0,0,1,44.78,27.26Z"
       id="path4"
       style="fill:#ffffff;fill-opacity:1" />
    <path
       d="M49.66,22.38H39.9a2,2,0,0,1,0-4h9.76a2,2,0,0,1,0,4Z"
       id="path5"
       style="fill:#ffffff;fill-opacity:1" />
  </g>
</svg>
