<?xml version="1.0" encoding="UTF-8" standalone="no"?>
<!-- Created with Inkscape (http://www.inkscape.org/) -->

<svg
   width="50"
   height="50"
   viewBox="0 0 13.229166 13.229167"
   version="1.1"
   id="svg1"
   xml:space="preserve"
   inkscape:version="1.3.2 (091e20e, 2023-11-25, custom)"
   sodipodi:docname="pipIcon.svg"
   xmlns:inkscape="http://www.inkscape.org/namespaces/inkscape"
   xmlns:sodipodi="http://sodipodi.sourceforge.net/DTD/sodipodi-0.dtd"
   xmlns="http://www.w3.org/2000/svg"
   xmlns:svg="http://www.w3.org/2000/svg"><sodipodi:namedview
     id="namedview1"
     pagecolor="#00ffff"
     bordercolor="#000000"
     borderopacity="0.25"
     inkscape:showpageshadow="2"
     inkscape:pageopacity="0.0"
     inkscape:pagecheckerboard="0"
     inkscape:deskcolor="#d1d1d1"
     inkscape:document-units="mm"
     inkscape:zoom="11.702245"
     inkscape:cx="23.756126"
     inkscape:cy="28.327899"
     inkscape:window-width="1920"
     inkscape:window-height="1017"
     inkscape:window-x="1912"
     inkscape:window-y="-8"
     inkscape:window-maximized="1"
     inkscape:current-layer="layer1" /><defs
     id="defs1" /><g
     inkscape:label="Camada 1"
     inkscape:groupmode="layer"
     id="layer1"><path
       style="fill:#ffffff;fill-rule:evenodd;stroke:#ffffff;stroke-width:0.439467"
       d="M 1.6167656,1.0449521 12.094361,0.969844 12.131915,11.672764 10.25421,9.9077209 11.380833,8.5557735 c 0.21877,-0.625904 -0.0035,-0.8308566 -0.563312,-0.7135285 L 5.8416026,12.367516 5.2595139,11.710318 11.117954,5.7392156 C 11.401505,4.985162 11.07821,4.8622263 10.479534,5.0256876 L 3.0062673,12.311185 2.4054017,11.672764 9.4280195,4.6877002 C 9.6386579,4.0107916 9.347106,3.7616746 8.6018289,3.8990643 L 3.9451203,8.7059895 3.4193626,8.0675698 7.1372187,4.2370511 C 7.0773648,3.3671503 6.6517126,3.3202959 6.1983663,3.3357529 L 1.6543196,8.1051238 0.9971227,7.5042585 4.1704446,4.1243888 Z"
       id="path1"
       sodipodi:nodetypes="cccccccccccccccccccccc" /></g></svg>
